# xmcd CD database file
#
# Track frame offsets:
#	150
#	21624
#	50711
#	75983
#	90713
#	118842
#	138662
#	165731
#
# Disc length: 2456 seconds
#
# Revision: 2
# Processed by: cddbd v1.4b41PL1 Copyright (c) Steve Scherf et al.
# Submitted via: Feurio! 1.50.2ß - http://www.feurio.com
#
DISCID=6c099608
DTITLE=Lionel Richie - Can´t Slow Down
DYEAR=1900
DGENRE=
TTITLE0=Can´t Slow Down
TTITLE1=All Night Long (All Night)
TTITLE2=Penny Lover
TTITLE3=Stuck On You
TTITLE4=Love Will Find A Way
TTITLE5=The Only One
TTITLE6=Running With The Night
TTITLE7=Hello
EXTD=
EXTT0=
EXTT1=
EXTT2=
EXTT3=
EXTT4=
EXTT5=
EXTT6=
EXTT7=
PLAYORDER=
